<mxfile host="app.diagrams.net" modified="2023-08-21T06:52:12.665Z" agent="Mozilla/5.0 (Macintosh; Intel Mac OS X 10_15_7) AppleWebKit/537.36 (KHTML, like Gecko) Chrome/115.0.0.0 Safari/537.36" version="21.3.2" etag="acsHOL_CzQHO8OKADbyc" type="github">
  <diagram name="第 1 页" id="8wi4EIumi2eM8gTKQM9E">
    <mxGraphModel>
      <root>
        <mxCell id="0" />
        <mxCell id="1" parent="0" />
      </root>
    </mxGraphModel>
  </diagram>
</mxfile>
